<svg width="88" height="88" viewBox="0 0 88 88" fill="none" xmlns="http://www.w3.org/2000/svg">
<g clip-path="url(#clip0_1_110)">
<path d="M43.9999 56C43.7562 56 43.5274 55.8987 43.3624 55.7187L35.1874 46.8725C34.8612 46.52 34.8837 45.9687 35.2362 45.6425C35.5887 45.3162 36.1399 45.3387 36.4662 45.6912L43.9999 53.8475L51.5337 45.6912C51.8599 45.3387 52.4112 45.3162 52.7637 45.6425C53.1162 45.9687 53.1387 46.52 52.8124 46.8725L44.6374 55.7187C44.4724 55.8987 44.2437 56 43.9999 56Z" fill="white"/>
<path d="M43.9999 56C43.5199 56 43.1299 55.61 43.1299 55.13V32.87C43.1299 32.39 43.5199 32 43.9999 32C44.4799 32 44.8699 32.39 44.8699 32.87V55.13C44.8699 55.61 44.4799 56 43.9999 56Z" fill="white"/>
</g>
<path d="M33.4298 81.557C33.1174 82.6907 34.5332 83.5455 35.4423 84.1611C36.2331 84.6943 36.3387 84.823 36.2707 85.0698C36.1942 85.3475 35.8131 85.3753 35.2578 85.2222C34.5868 85.0374 34.1288 84.712 34.3116 84.0487L33.0775 83.7087C32.78 84.7885 33.2944 85.843 34.9603 86.302C36.364 86.6888 37.2369 86.3816 37.492 85.4561C37.7852 84.3918 36.937 83.8261 35.8941 83.1239C35.1741 82.635 34.5597 82.2749 34.668 81.8816C34.7488 81.5885 35.062 81.4756 35.8564 81.6945C36.9362 81.992 37.2804 82.369 37.0509 83.202L38.2849 83.542C38.6632 82.1692 38.1515 81.1652 36.1925 80.6254C34.5189 80.1642 33.6869 80.6237 33.4298 81.557Z" fill="white"/>
<path d="M22.7608 77.7121C23.5992 76.6514 23.3438 75.4909 22.3333 74.6923C21.4672 74.0077 20.3043 73.8533 19.546 74.7224L20.5502 75.5161C20.8111 75.2634 21.2371 75.2534 21.6388 75.5709C22.1158 75.948 22.1436 76.4288 21.7566 76.9184C21.3747 77.4016 20.9004 77.4856 20.4234 77.1086C20.0217 76.7911 19.9331 76.3743 20.1186 76.0621L19.1144 75.2684C18.444 76.2069 18.8628 77.3027 19.7289 77.9873C20.7394 78.786 21.9274 78.7665 22.7608 77.7121Z" fill="white"/>
<path d="M13.4769 66.3408L12.8008 65.254L10.2807 66.8217L9.23543 65.0505L8.28442 65.6421L9.62874 67.9244C9.85436 68.3022 10.1891 68.386 10.5628 68.1536L13.4769 66.3408Z" fill="white"/>
<path d="M5.91892 56.5274C7.30351 56.2308 7.76511 55.101 7.49868 53.8573C7.23392 52.6213 6.35005 51.7798 4.96546 52.0764C3.58869 52.3713 3.12709 53.501 3.39185 54.737C3.65828 55.9808 4.54215 56.8223 5.91892 56.5274ZM5.65081 55.2758C4.99372 55.4165 4.61435 55.0969 4.487 54.5024C4.36133 53.9157 4.57648 53.4687 5.23357 53.328C5.89848 53.1855 6.27785 53.5052 6.40352 54.0919C6.53088 54.6864 6.31573 55.1333 5.65081 55.2758Z" fill="white"/>
<path d="M5.97803 42.0857L6.44981 38.5975L5.33992 38.4474L5.1898 39.5573L1.08319 39.0019C0.639235 38.9418 0.368162 39.1554 0.323973 39.6015L0.172528 41.1391L1.28242 41.2892L1.36352 40.3314L5.01825 40.8257L4.86814 41.9356L5.97803 42.0857Z" fill="white"/>
<path d="M8.2666 30.6666L9.77712 27.4871L8.76549 27.0065L8.28487 28.0182L4.54182 26.2399C4.13716 26.0476 3.81396 26.1686 3.63617 26.5801L3.02418 27.9988L4.03581 28.4794L4.40442 27.5917L7.73559 29.1743L7.25497 30.1859L8.2666 30.6666Z" fill="white"/>
<path d="M20.8164 12.5044L19.769 10.9432L20.8718 10.2034L20.2478 9.27327L19.145 10.0131L18.4988 9.04982L17.6587 10.0951L18.0821 10.7262L17.2848 11.2611L17.9088 12.1911L18.706 11.6563L19.9985 13.5829C20.2437 13.9483 20.5856 14.0272 20.9421 13.7688L22.6315 12.5391L22.0075 11.609L20.8164 12.5044Z" fill="white"/>
<path d="M30.0102 6.20372C30.3418 7.58035 31.4829 8.01318 32.7195 7.71532C33.9484 7.41933 34.7672 6.51442 34.4357 5.13779C34.106 3.76894 32.9649 3.33611 31.736 3.6321C30.4994 3.92996 29.6805 4.83487 30.0102 6.20372ZM31.2546 5.90399C31.0973 5.25067 31.4072 4.86333 31.9983 4.72096C32.5816 4.58045 33.0339 4.78421 33.1913 5.43752C33.3505 6.09862 33.0406 6.48596 32.4573 6.62646C31.8662 6.76884 31.4139 6.56508 31.2546 5.90399Z" fill="white"/>
<path d="M56.857 7.21006C57.1414 6.41969 56.5317 5.9877 55.8807 5.48134C55.3489 5.06891 55.0132 4.82055 55.0782 4.63989C55.1324 4.48934 55.3148 4.47849 55.6009 4.58143C56.0149 4.73042 56.145 5.0068 56.0475 5.27779L57.2518 5.71123C57.5173 4.97355 57.2207 4.14409 55.9335 3.68085C54.8872 3.3043 54.1366 3.4763 53.8928 4.15376C53.5867 5.00435 54.3846 5.50407 55.0082 5.99207C55.5448 6.41473 55.7366 6.54328 55.6661 6.73899C55.6011 6.91965 55.3708 6.92178 55.0471 6.80529C54.4148 6.57773 54.3037 6.24866 54.4093 5.95509L53.205 5.52165C52.8853 6.40988 53.2843 7.19116 54.6844 7.69503C55.9942 8.16639 56.6267 7.84989 56.857 7.21006Z" fill="white"/>
<path d="M66.1652 10.5651C65.4202 11.4334 65.3043 12.662 66.4822 13.6726C67.5447 14.5842 68.6477 14.3183 69.0887 13.9272L68.1172 13.0937C67.8586 13.2724 67.4994 13.175 67.1594 12.8833C66.6068 12.4093 66.5654 11.9415 66.8675 11.5894L69.193 13.5845L69.4534 13.2809C70.2504 12.352 70.067 11.2143 69.1137 10.3964C68.1605 9.57861 66.9986 9.59369 66.1652 10.5651ZM67.3364 11.0429C67.5343 10.8122 67.8962 10.7221 68.4366 11.1858C68.9769 11.6494 68.949 12.026 68.751 12.2567L67.3364 11.0429Z" fill="white"/>
<path d="M76.9066 21.2965C75.8918 21.8247 75.3264 22.9217 76.0429 24.2984C76.6892 25.5402 77.8119 25.7045 78.3669 25.5058L77.7759 24.3704C77.4693 24.4398 77.1723 24.2156 76.9654 23.8182C76.6293 23.1724 76.7652 22.723 77.1767 22.5087L78.5913 25.2267L78.9461 25.042C80.0319 24.4769 80.2856 23.3528 79.7057 22.2387C79.1258 21.1245 78.042 20.7056 76.9066 21.2965ZM77.8154 22.1763C78.0851 22.036 78.4545 22.0872 78.7832 22.7188C79.1119 23.3504 78.9456 23.6894 78.676 23.8298L77.8154 22.1763Z" fill="white"/>
<path d="M85.0758 50.2009C85.2191 49.4301 84.8051 48.987 84.1264 48.6981L84.1688 48.47C84.8829 48.4807 85.4369 48.2581 85.5757 47.5109C85.719 46.7401 85.3064 46.2892 84.6278 46.0003L84.6863 45.6857L85.3503 46.0532L85.7514 46.1277L85.9853 44.8693L82.0133 44.1311L81.7794 45.3896L83.1716 45.6483C84.1312 45.8266 84.6997 46.095 84.5725 46.7793C84.4863 47.2434 84.2505 47.3297 83.4955 47.1894L81.5134 46.8211L81.2795 48.0795L82.6717 48.3382C83.6312 48.5166 84.1998 48.785 84.0726 49.4692C83.9864 49.9333 83.7506 50.0197 82.9955 49.8794L81.0135 49.511L80.7796 50.7694L82.8482 51.1539C83.9179 51.3527 84.8872 51.2155 85.0758 50.2009Z" fill="white"/>
<path d="M78.5702 63.3677C77.4254 62.5344 76.276 62.9444 75.5274 63.9729C74.7835 64.9948 74.7466 66.2146 75.8914 67.048C77.0297 67.8766 78.1792 67.4665 78.9231 66.4446C79.6716 65.4162 79.7086 64.1963 78.5702 63.3677ZM77.817 64.4026C78.3603 64.798 78.3754 65.2939 78.0176 65.7854C77.6645 66.2705 77.188 66.4086 76.6447 66.0131C76.0949 65.6129 76.0798 65.1171 76.4329 64.632C76.7907 64.1404 77.2672 64.0024 77.817 64.4026Z" fill="white"/>
<path d="M67.5764 73.0952L66.5172 73.8139L68.1835 76.2699L66.4552 77.3845L67.0841 78.3113L69.3112 76.8776C69.6798 76.6372 69.7503 76.2993 69.5033 75.9352L67.5764 73.0952Z" fill="white"/>
<path d="M58.0813 81.0831C57.7975 79.9749 56.8577 79.175 55.3542 79.56C53.998 79.9073 53.583 80.9633 53.6504 81.5488L54.8903 81.2313C54.8924 80.917 55.1782 80.6786 55.6122 80.5675C56.3175 80.3869 56.7243 80.6213 56.8394 81.0708L53.8712 81.8309L53.9704 82.2184C54.2741 83.4041 55.3111 83.9066 56.5279 83.595C57.7446 83.2834 58.3988 82.3231 58.0813 81.0831ZM57.0181 81.7683C57.0935 82.0628 56.9596 82.4109 56.2699 82.5875C55.5801 82.7641 55.2877 82.5252 55.2123 82.2307L57.0181 81.7683Z" fill="white"/>
<defs>
<clipPath id="clip0_1_110">
<rect width="24" height="24" fill="white" transform="translate(32 32)"/>
</clipPath>
</defs>
</svg>
