<svg width="53" height="53" viewBox="0 0 53 53" fill="none" xmlns="http://www.w3.org/2000/svg">
<path d="M34.7418 24.4503C37.1648 20.8713 41.6868 18.8373 45.9718 19.3973C46.7818 19.5033 47.5928 19.6993 48.3018 20.1063C49.0088 20.5143 49.6088 21.1533 49.8418 21.9363C49.9358 22.2503 49.9278 22.6663 49.6368 22.8163C49.5148 22.8783 49.3718 22.8763 49.2348 22.8733L46.8408 22.8153C46.5278 22.8083 46.0958 22.9233 46.1338 23.2333C46.1688 23.5073 46.5378 23.5593 46.8138 23.5623C47.6468 23.5703 48.4918 23.8053 49.1538 24.3103C49.8178 24.8143 50.2808 25.6043 50.3038 26.4373M28.8448 18.3373C26.9578 14.4493 27.4568 9.51628 30.0848 6.08528C30.5808 5.43728 31.1558 4.83228 31.8628 4.42228C32.5698 4.01328 33.4228 3.81428 34.2178 4.00328C34.5368 4.07928 34.8928 4.29328 34.8778 4.62128C34.8708 4.75728 34.7978 4.88128 34.7258 4.99728L33.4798 7.04228C33.3178 7.30928 33.1998 7.74228 33.4888 7.86228C33.7438 7.97028 33.9728 7.67628 34.1128 7.43828C34.5368 6.72128 35.1628 6.10828 35.9318 5.78528C36.6998 5.46328 37.6148 5.45728 38.3478 5.85328M20.6028 20.3873C16.2928 20.0773 12.2698 17.1793 10.6128 13.1883C10.2988 12.4343 10.0628 11.6333 10.0618 10.8163C10.0608 10.0003 10.3148 9.16128 10.8758 8.56728C11.1008 8.32928 11.4658 8.12828 11.7408 8.30528C11.8548 8.37928 11.9248 8.50528 11.9908 8.62528L13.1388 10.7273C13.2888 11.0013 13.6038 11.3183 13.8528 11.1303C14.0728 10.9633 13.9338 10.6173 13.7978 10.3773C13.3888 9.65128 13.1698 8.80228 13.2758 7.97628C13.3808 7.14928 13.8328 6.35328 14.5428 5.91628M18.2578 28.5513C15.8348 32.1293 11.3128 34.1633 7.0278 33.6033C6.2178 33.4973 5.4068 33.3013 4.6978 32.8943C3.9888 32.4873 3.3908 31.8473 3.1578 31.0643C3.0638 30.7503 3.0718 30.3343 3.3628 30.1843C3.4848 30.1223 3.6278 30.1243 3.7648 30.1273L6.1588 30.1853C6.4718 30.1923 6.9038 30.0773 6.8658 29.7673C6.8308 29.4933 6.4618 29.4413 6.1858 29.4383C5.3528 29.4303 4.5078 29.1953 3.8458 28.6903C3.1818 28.1863 2.7188 27.3963 2.6958 26.5633M24.1548 34.6633C26.0418 38.5513 25.5428 43.4843 22.9148 46.9153C22.4188 47.5633 21.8438 48.1683 21.1368 48.5783C20.4298 48.9873 19.5768 49.1863 18.7818 48.9973C18.4628 48.9213 18.1068 48.7073 18.1218 48.3793C18.1288 48.2433 18.2018 48.1193 18.2738 48.0033L19.5208 45.9583C19.6828 45.6913 19.8008 45.2583 19.5118 45.1383C19.2568 45.0303 19.0278 45.3243 18.8878 45.5623C18.4638 46.2793 17.8378 46.8923 17.0688 47.2153C16.3008 47.5373 15.3858 47.5433 14.6528 47.1473M32.3968 32.6133C36.7068 32.9233 40.7298 35.8213 42.3868 39.8123C42.7008 40.5663 42.9368 41.3673 42.9378 42.1843C42.9388 43.0003 42.6848 43.8393 42.1238 44.4333C41.8988 44.6713 41.5338 44.8723 41.2588 44.6953C41.1448 44.6213 41.0748 44.4953 41.0088 44.3753L39.8608 42.2733C39.7108 41.9993 39.3958 41.6823 39.1468 41.8703C38.9268 42.0373 39.0658 42.3833 39.2018 42.6233C39.6108 43.3493 39.8298 44.1983 39.7238 45.0243C39.6188 45.8513 39.1668 46.6473 38.4568 47.0843M34.7418 28.5503C37.1648 32.1283 41.6868 34.1623 45.9718 33.6023C46.7818 33.4963 47.5928 33.3003 48.3018 32.8933C49.0088 32.4853 49.6088 31.8463 49.8418 31.0633C49.9358 30.7493 49.9278 30.3333 49.6368 30.1833C49.5148 30.1213 49.3718 30.1233 49.2348 30.1263L46.8408 30.1843C46.5278 30.1913 46.0958 30.0763 46.1338 29.7663C46.1688 29.4923 46.5378 29.4403 46.8138 29.4373C47.6468 29.4293 48.4918 29.1943 49.1538 28.6893C49.8178 28.1853 50.2808 27.3953 50.3038 26.5623M32.3968 20.3863C36.7068 20.0763 40.7298 17.1783 42.3868 13.1873C42.7008 12.4333 42.9368 11.6323 42.9378 10.8153C42.9388 9.99928 42.6848 9.16028 42.1238 8.56628C41.8988 8.32828 41.5338 8.12728 41.2588 8.30428C41.1448 8.37828 41.0748 8.50428 41.0088 8.62428L39.8608 10.7263C39.7108 11.0003 39.3958 11.3173 39.1468 11.1293C38.9268 10.9623 39.0658 10.6163 39.2018 10.3763C39.6108 9.65028 39.8298 8.80128 39.7238 7.97528C39.6178 7.14928 39.1668 6.35228 38.4568 5.91528M24.1548 18.3353C26.0418 14.4483 25.5428 9.51528 22.9148 6.08528C22.4188 5.43528 21.8438 4.83128 21.1368 4.42128C20.4298 4.01228 19.5768 3.81328 18.7818 4.00228C18.4628 4.07828 18.1068 4.29228 18.1218 4.62028C18.1288 4.75628 18.2018 4.88028 18.2738 4.99628L19.5208 7.04128C19.6828 7.30828 19.8008 7.74128 19.5118 7.86128C19.2568 7.96928 19.0278 7.67528 18.8878 7.43728C18.4638 6.72028 17.8378 6.10728 17.0688 5.78428C16.3008 5.46228 15.3858 5.45628 14.6528 5.85228M18.2578 24.4483C15.8348 20.8703 11.3128 18.8363 7.0278 19.3963C6.2178 19.5023 5.4068 19.6983 4.6978 20.1053C3.9908 20.5133 3.3908 21.1523 3.1578 21.9353C3.0638 22.2493 3.0718 22.6653 3.3628 22.8153C3.4848 22.8773 3.6278 22.8753 3.7648 22.8723L6.1588 22.8143C6.4718 22.8073 6.9038 22.9223 6.8658 23.2323C6.8308 23.5063 6.4618 23.5583 6.1858 23.5613C5.3528 23.5693 4.5078 23.8043 3.8458 24.3093C3.1818 24.8133 2.7188 25.6033 2.6958 26.4363M20.6028 32.6123C16.2928 32.9223 12.2698 35.8203 10.6128 39.8113C10.2988 40.5653 10.0628 41.3663 10.0618 42.1833C10.0608 43.0003 10.3148 43.8383 10.8758 44.4323C11.1008 44.6703 11.4658 44.8713 11.7408 44.6943C11.8548 44.6203 11.9248 44.4943 11.9908 44.3743L13.1388 42.2723C13.2888 41.9983 13.6038 41.6813 13.8528 41.8693C14.0728 42.0363 13.9338 42.3823 13.7978 42.6223C13.3888 43.3483 13.1698 44.1973 13.2758 45.0233C13.3808 45.8503 13.8328 46.6463 14.5428 47.0833M28.8448 34.6633C26.9578 38.5503 27.4568 43.4833 30.0848 46.9133C30.5808 47.5633 31.1558 48.1673 31.8628 48.5773C32.5698 48.9863 33.4228 49.1853 34.2178 48.9963C34.5368 48.9203 34.8928 48.7063 34.8778 48.3783C34.8708 48.2423 34.7978 48.1183 34.7258 48.0023L33.4788 45.9573C33.3168 45.6903 33.1988 45.2573 33.4878 45.1373C33.7428 45.0293 33.9718 45.3233 34.1118 45.5613C34.5358 46.2783 35.1618 46.8913 35.9308 47.2143C36.6988 47.5363 37.6138 47.5423 38.3468 47.1463M32.5468 23.0163C32.9438 23.3593 33.3098 23.7383 33.6368 24.1463C33.6818 24.2023 33.7268 24.2613 33.7388 24.3313C33.7668 24.4883 33.6218 24.6213 33.4818 24.6983C33.3418 24.7753 33.1778 24.8443 33.1148 24.9913C33.0408 25.1653 33.1518 25.3713 33.3118 25.4743C33.4708 25.5753 33.6648 25.6003 33.8518 25.6343C34.5698 25.7643 35.2568 26.0633 35.8428 26.4993C35.2541 26.9368 34.5724 27.2328 33.8508 27.3643C33.6648 27.3983 33.4708 27.4233 33.3108 27.5243C33.1518 27.6263 33.0408 27.8333 33.1148 28.0073C33.1778 28.1543 33.3418 28.2233 33.4818 28.3003C33.6218 28.3773 33.7668 28.5103 33.7388 28.6673C33.7206 28.7361 33.6856 28.7994 33.6368 28.8513C33.3098 29.2613 32.9438 29.6393 32.5468 29.9813M32.5388 29.9943C32.4413 30.5099 32.2963 31.0154 32.1058 31.5043C32.085 31.5724 32.0475 31.6343 31.9968 31.6843C31.8748 31.7873 31.6868 31.7283 31.5508 31.6453C31.4138 31.5623 31.2718 31.4553 31.1128 31.4743C30.9258 31.4963 30.8028 31.6973 30.7928 31.8853C30.7848 32.0753 30.8608 32.2553 30.9248 32.4333C31.1718 33.1203 31.2558 33.8653 31.1718 34.5903C30.4983 34.2995 29.9008 33.8574 29.4258 33.2983C29.3038 33.1543 29.1858 32.9983 29.0178 32.9113C28.8498 32.8243 28.6148 32.8313 28.5018 32.9813C28.4058 33.1103 28.4278 33.2863 28.4318 33.4463C28.4348 33.6063 28.3918 33.7983 28.2418 33.8523C28.1732 33.871 28.101 33.8724 28.0318 33.8563C27.5132 33.7768 27.003 33.6496 26.5078 33.4763M26.4918 33.4763C25.9978 33.6503 25.4868 33.7763 24.9678 33.8563C24.8986 33.8724 24.8264 33.871 24.7578 33.8523C24.6078 33.7983 24.5648 33.6063 24.5678 33.4463C24.5718 33.2863 24.5938 33.1103 24.4978 32.9823C24.3848 32.8303 24.1498 32.8243 23.9818 32.9113C23.8148 32.9983 23.6958 33.1543 23.5738 33.2983C23.0988 33.8574 22.5013 34.2995 21.8278 34.5903C21.7438 33.8653 21.8278 33.1203 22.0748 32.4333C22.1388 32.2553 22.2148 32.0743 22.2058 31.8853C22.1978 31.6973 22.0738 31.4963 21.8858 31.4743C21.7278 31.4543 21.5858 31.5623 21.4488 31.6453C21.3128 31.7283 21.1248 31.7873 21.0028 31.6853C20.9519 31.635 20.9144 31.5728 20.8938 31.5043C20.7033 31.0154 20.5583 30.5099 20.4608 29.9943M20.4538 29.9813C20.0561 29.639 19.6909 29.2608 19.3628 28.8513C19.314 28.7994 19.279 28.7361 19.2608 28.6673C19.2328 28.5103 19.3778 28.3773 19.5178 28.3003C19.6578 28.2233 19.8218 28.1543 19.8848 28.0073C19.9588 27.8333 19.8478 27.6273 19.6878 27.5243C19.5288 27.4233 19.3348 27.3983 19.1478 27.3643C18.4265 27.2327 17.7452 26.9367 17.1568 26.4993C17.7455 26.0617 18.4272 25.7658 19.1488 25.6343C19.3348 25.6003 19.5288 25.5753 19.6888 25.4743C19.8478 25.3723 19.9588 25.1653 19.8848 24.9913C19.8218 24.8443 19.6578 24.7753 19.5178 24.6983C19.3778 24.6213 19.2328 24.4883 19.2608 24.3313C19.279 24.2624 19.314 24.1992 19.3628 24.1473C19.6898 23.7373 20.0558 23.3593 20.4528 23.0173M20.4608 23.0043C20.5583 22.4887 20.7033 21.9832 20.8938 21.4943C20.9146 21.4261 20.9521 21.3643 21.0028 21.3143C21.1248 21.2113 21.3128 21.2703 21.4488 21.3533C21.5858 21.4363 21.7278 21.5433 21.8868 21.5243C22.0738 21.5023 22.1968 21.3013 22.2068 21.1133C22.2148 20.9233 22.1388 20.7433 22.0748 20.5653C21.8279 19.8748 21.7434 19.1367 21.8278 18.4083C22.4988 18.6973 23.1018 19.1433 23.5738 19.7003C23.6958 19.8443 23.8138 20.0003 23.9818 20.0873C24.1498 20.1743 24.3848 20.1673 24.4978 20.0173C24.5938 19.8883 24.5718 19.7123 24.5678 19.5523C24.5648 19.3923 24.6078 19.2003 24.7578 19.1463C24.8264 19.1275 24.8986 19.1262 24.9678 19.1423C25.4868 19.2223 25.9978 19.3483 26.4918 19.5223M26.5078 19.5223C27.003 19.3489 27.5132 19.2217 28.0318 19.1423C28.1018 19.1323 28.1748 19.1223 28.2418 19.1463C28.3918 19.2003 28.4348 19.3923 28.4318 19.5523C28.4278 19.7123 28.4058 19.8883 28.5018 20.0163C28.6148 20.1683 28.8498 20.1743 29.0178 20.0873C29.1858 20.0003 29.3038 19.8443 29.4258 19.7003C29.9008 19.1412 30.4983 18.6991 31.1718 18.4083C31.2558 19.1333 31.1718 19.8783 30.9248 20.5653C30.8608 20.7433 30.7848 20.9243 30.7938 21.1133C30.8018 21.3013 30.9258 21.5023 31.1138 21.5243C31.2718 21.5443 31.4138 21.4363 31.5508 21.3533C31.6868 21.2703 31.8748 21.2113 31.9968 21.3133C32.0477 21.3636 32.0852 21.4258 32.1058 21.4943C32.2958 21.9823 32.4408 22.4893 32.5388 23.0043M45.5618 19.3123C46.5418 18.8273 47.3118 17.3943 47.1288 16.3183C47.0688 15.9673 46.9648 15.5323 47.2458 15.3143C47.3408 15.2403 47.4638 15.2113 47.5708 15.1553C47.9288 14.9713 48.0408 14.5173 47.9438 14.1183C47.6468 13.8343 47.1978 13.7053 46.8598 13.9233C46.7578 13.9883 46.6708 14.0803 46.5598 14.1253C46.2298 14.2593 45.9058 13.9523 45.6318 13.7253C44.7918 13.0273 43.1648 12.9793 42.2558 13.5853M42.2558 39.4143C43.1648 40.0193 44.7918 39.9713 45.6318 39.2743C45.9058 39.0463 46.2298 38.7393 46.5588 38.8733C46.6708 38.9183 46.7578 39.0103 46.8588 39.0753C47.1988 39.2933 47.6468 39.1643 47.9438 38.8803C48.0418 38.4803 47.9288 38.0273 47.5708 37.8433C47.4638 37.7873 47.3408 37.7583 47.2458 37.6843C46.9648 37.4663 47.0688 37.0313 47.1288 36.6803C47.3128 35.6043 46.5408 34.1703 45.5618 33.6873M23.1928 46.6023C23.1228 47.6923 23.9788 49.0773 25.0028 49.4563C25.3368 49.5793 25.7648 49.7063 25.8128 50.0593C25.8298 50.1793 25.7938 50.2993 25.7878 50.4203C25.7688 50.8223 26.1058 51.1463 26.4998 51.2623C26.8938 51.1463 27.2298 50.8223 27.2118 50.4203C27.2058 50.3003 27.1698 50.1793 27.1858 50.0593C27.2348 49.7063 27.6628 49.5793 27.9968 49.4563C29.0208 49.0763 29.8768 47.6923 29.8068 46.6023M7.4368 33.6883C6.4588 34.1723 5.6868 35.6053 5.8708 36.6813C5.9308 37.0323 6.0348 37.4673 5.7538 37.6853C5.6588 37.7593 5.5358 37.7883 5.4288 37.8443C5.0708 38.0283 4.9588 38.4823 5.0558 38.8813C5.3528 39.1653 5.8018 39.2943 6.1398 39.0763C6.2418 39.0113 6.3288 38.9193 6.4398 38.8743C6.7698 38.7403 7.0938 39.0473 7.3678 39.2743C8.2078 39.9723 9.8348 40.0203 10.7438 39.4143M10.7438 13.5853C9.8348 12.9803 8.2078 13.0283 7.3678 13.7253C7.0938 13.9533 6.7698 14.2603 6.4408 14.1263C6.3288 14.0813 6.2418 13.9893 6.1408 13.9243C5.8008 13.7063 5.3528 13.8353 5.0558 14.1193C4.9578 14.5193 5.0708 14.9723 5.4288 15.1563C5.5358 15.2123 5.6588 15.2413 5.7538 15.3153C6.0348 15.5333 5.9308 15.9683 5.8708 16.3193C5.6868 17.3953 6.4588 18.8293 7.4368 19.3133M29.8068 6.39828C29.8768 5.30828 29.0208 3.92328 27.9968 3.54428C27.6628 3.42128 27.2348 3.29428 27.1868 2.94128C27.1698 2.82128 27.2058 2.70128 27.2118 2.58028C27.2308 2.17828 26.8938 1.85428 26.4998 1.73828C26.1058 1.85428 25.7698 2.17828 25.7878 2.58028C25.7938 2.70028 25.8298 2.82128 25.8138 2.94128C25.7648 3.29428 25.3368 3.42128 25.0028 3.54428C23.9788 3.92428 23.1228 5.30828 23.1928 6.39828M28.4368 25.9383L28.6248 25.8753M26.9818 24.5413L27.0218 24.3473M25.0438 25.1033L24.8958 24.9733M24.5618 27.0633L24.3748 27.1253M26.0178 28.4593L25.9778 28.6533M27.9558 27.8973L28.1038 28.0273M28.4378 27.0623L28.6248 27.1253M27.9548 25.1033L28.1038 24.9733M26.0178 24.5413L25.9778 24.3473M24.5618 25.9373L24.3748 25.8753M25.0448 27.8973L24.8958 28.0273M26.9818 28.4593L27.0218 28.6533M30.6818 24.9333C30.7031 24.9047 30.7334 24.884 30.7678 24.8746C30.8023 24.8652 30.8389 24.8675 30.8718 24.8813M27.2338 22.0953C27.2198 22.0626 27.2171 22.0261 27.2262 21.9917C27.2353 21.9573 27.2555 21.9269 27.2838 21.9053M23.0518 23.6623C23.0161 23.658 22.9829 23.6419 22.9575 23.6165C22.9322 23.5911 22.916 23.5579 22.9118 23.5223M22.3178 28.0673C22.2965 28.0959 22.2662 28.1166 22.2318 28.126C22.1973 28.1354 22.1607 28.133 22.1278 28.1193M25.7658 30.9053C25.7798 30.938 25.7825 30.9744 25.7734 31.0089C25.7643 31.0433 25.7441 31.0737 25.7158 31.0953M29.9478 29.3383C29.9835 29.3425 30.0167 29.3586 30.0421 29.384C30.0675 29.4094 30.0836 29.4426 30.0878 29.4783M30.6818 28.0673C30.7031 28.0959 30.7334 28.1166 30.7678 28.126C30.8023 28.1354 30.8389 28.133 30.8718 28.1193M29.9478 23.6623C29.9835 23.658 30.0167 23.6419 30.0421 23.6165C30.0675 23.5911 30.0836 23.5579 30.0878 23.5223M25.7658 22.0953C25.7798 22.0626 25.7825 22.0261 25.7734 21.9917C25.7643 21.9573 25.7441 21.9269 25.7158 21.9053M22.3178 24.9333C22.2965 24.9047 22.2662 24.884 22.2318 24.8746C22.1973 24.8652 22.1607 24.8675 22.1278 24.8813M23.0518 29.3383C23.0161 29.3425 22.9829 29.3586 22.9575 29.384C22.9322 29.4094 22.916 29.4426 22.9118 29.4783M27.2338 30.9053C27.2198 30.938 27.2171 30.9744 27.2262 31.0089C27.2353 31.0433 27.2555 31.0737 27.2838 31.0953M29.9338 26.1123C30.0178 26.0923 30.1008 26.0723 30.1838 26.0503M27.8818 23.3323L27.9518 23.0843M24.4468 23.7193L24.2678 23.5343M23.0658 26.8883C22.9818 26.9083 22.8988 26.9283 22.8158 26.9503M25.1178 29.6683L25.0478 29.9163M28.5528 29.2813L28.7318 29.4663M29.9338 26.8883C30.0178 26.9083 30.1008 26.9283 30.1838 26.9503M28.5528 23.7203L28.7318 23.5343M25.1178 23.3323L25.0478 23.0843M23.0658 26.1123C22.9818 26.0923 22.8988 26.0723 22.8158 26.0503M24.4468 29.2803L24.2678 29.4663M27.8818 29.6683L27.9518 29.9163M32.4998 26.0003V25.9373M29.0668 21.0543L29.0128 21.0233M23.0668 21.5533L23.0128 21.5853M20.4998 27.0003V27.0633M23.9328 31.9463L23.9868 31.9773M29.9328 31.4473L29.9868 31.4153M32.4998 27.0003V27.0633M29.9328 21.5533L29.9868 21.5853M23.9328 21.0543L23.9868 21.0233M20.4998 26.0003V25.9373M23.0668 31.4473L23.0128 31.4153M29.0668 31.9463L29.0128 31.9773M31.9368 23.9373L31.8748 23.8753M26.9998 20.5103L26.9138 20.5333M21.5618 23.0733L21.5388 23.1583M21.0618 29.0623L21.1248 29.1253M25.9998 32.4903L26.0858 32.4673M31.4378 29.9273L31.4608 29.8423M31.9378 29.0623L31.8748 29.1253M31.4378 23.0723L31.4608 23.1583M25.9998 20.5103L26.0848 20.5333M21.0618 23.9373L21.1238 23.8753M21.5608 29.9283L21.5378 29.8423M26.9998 32.4903L26.9148 32.4673" stroke="black" stroke-miterlimit="10" stroke-linecap="round" stroke-linejoin="round"/>
<path d="M44.1278 22.3976C42.5178 22.6356 40.9458 23.1276 39.4868 23.8496M31.7598 9.18359C31.1605 10.7003 30.8019 12.3012 30.6968 13.9286M14.1318 13.2866C15.1456 14.5642 16.3528 15.6756 17.7098 16.5806M8.87178 30.6056C10.4818 30.3676 12.0538 29.8756 13.5128 29.1536M21.2398 43.8196C21.839 42.3029 22.1977 40.702 22.3028 39.0746M38.8678 39.7166C37.854 38.4389 36.6467 37.3275 35.2898 36.4226M44.1278 30.6056C42.5146 30.3662 40.9487 29.8763 39.4868 29.1536M38.8678 13.2866C37.854 14.5642 36.6467 15.6756 35.2898 16.5806M21.2398 9.18359C21.839 10.7003 22.1977 12.3012 22.3028 13.9286M8.87178 22.3986C10.4818 22.6356 12.0538 23.1286 13.5128 23.8496M14.1318 39.7166C15.1456 38.4389 16.3528 37.3275 17.7098 36.4226M31.7598 43.8196C31.1605 42.3029 30.8019 40.702 30.6968 39.0746M44.3028 26.0916C43.2711 26.391 42.1876 26.4684 41.1238 26.3186M35.0468 10.8786C34.7901 11.9216 34.3153 12.8984 33.6538 13.7446M17.2438 11.2876C18.019 12.0315 18.6277 12.9313 19.0298 13.9276M8.69678 26.9096C9.72851 26.6102 10.812 26.5328 11.8758 26.6826M17.9528 42.1226C18.2094 41.0796 18.6842 40.1028 19.3458 39.2566M35.7558 41.7136C34.9806 40.9697 34.3719 40.0699 33.9698 39.0736" stroke="black" stroke-width="0.5" stroke-miterlimit="10" stroke-linecap="round" stroke-linejoin="round"/>
</svg>
