<svg width="53" height="53" viewBox="0 0 53 53" fill="none" xmlns="http://www.w3.org/2000/svg">
<path d="M29.4258 22.4143L29.8748 17.1813C30.0198 15.4883 30.1698 13.7743 30.7338 12.1713C31.8538 8.98331 34.7958 6.40631 38.1598 6.09331C38.8058 6.03331 39.5798 6.11931 39.8998 6.68431C40.0798 7.00631 40.0598 7.39831 40.1218 7.76231C40.1838 8.12631 40.4058 8.52731 40.7738 8.55831M24.4238 21.9233L20.1168 18.9183C18.7228 17.9453 17.3138 16.9583 16.2068 15.6683C14.0068 13.1043 13.2468 9.26831 14.6568 6.19831C14.9268 5.60831 15.3898 4.98131 16.0378 4.98831C16.4078 4.99231 16.7368 5.20731 17.0838 5.33431C17.4308 5.46231 17.8878 5.47131 18.0988 5.16831M21.4988 26.0093L16.7418 28.2373C15.2028 28.9573 13.6438 29.6853 11.9728 29.9983C8.65282 30.6213 4.94982 29.3623 2.99582 26.6053C2.62082 26.0763 2.30882 25.3633 2.63882 24.8053C2.82682 24.4853 3.17782 24.3083 3.46182 24.0723C3.74582 23.8353 3.98182 23.4443 3.82482 23.1093M23.5748 30.5863L23.1248 35.8193C22.9798 37.5123 22.8298 39.2263 22.2658 40.8293C21.1458 44.0173 18.2038 46.5943 14.8398 46.9073C14.1938 46.9673 13.4198 46.8813 13.0998 46.3163C12.9198 45.9943 12.9398 45.6023 12.8778 45.2383C12.8148 44.8733 12.5938 44.4733 12.2258 44.4423M28.5758 31.0773L32.8828 34.0823C34.2768 35.0553 35.6858 36.0423 36.7928 37.3323C38.9928 39.8963 39.7528 43.7323 38.3428 46.8023C38.0728 47.3923 37.6098 48.0193 36.9618 48.0123C36.5918 48.0083 36.2628 47.7933 35.9158 47.6663C35.5688 47.5383 35.1118 47.5293 34.9008 47.8323M31.5008 26.9913L36.2578 24.7633C37.7968 24.0433 39.3558 23.3153 41.0268 23.0023C44.3468 22.3793 48.0498 23.6383 50.0038 26.3953C50.3788 26.9243 50.6908 27.6373 50.3608 28.1953C50.1728 28.5153 49.8218 28.6923 49.5378 28.9283C49.2538 29.1653 49.0178 29.5563 49.1748 29.8913M30.5858 23.5743L35.8188 23.1253C37.5118 22.9803 39.2258 22.8303 40.8288 22.2663C44.0168 21.1463 46.5938 18.2043 46.9068 14.8403C46.9668 14.1943 46.8808 13.4203 46.3158 13.1003C45.9938 12.9203 45.6018 12.9403 45.2378 12.8783C44.8728 12.8153 44.4728 12.5943 44.4418 12.2263M26.0088 21.4983L28.2368 16.7423C28.9568 15.2033 29.6848 13.6443 29.9978 11.9733C30.6208 8.65331 29.3618 4.95031 26.6048 2.99631C26.0758 2.62131 25.3628 2.30931 24.8048 2.63931C24.4848 2.82731 24.3078 3.17831 24.0718 3.46231C23.8348 3.74631 23.4438 3.98231 23.1088 3.82531M21.9228 24.4253L18.9178 20.1173C17.9448 18.7233 16.9578 17.3143 15.6678 16.2073C13.1038 14.0073 9.26782 13.2473 6.19782 14.6573C5.60782 14.9273 4.98082 15.3903 4.98782 16.0383C4.99182 16.4083 5.20682 16.7373 5.33382 17.0843C5.46182 17.4313 5.47082 17.8883 5.16782 18.0993M22.4138 29.4263L17.1808 29.8753C15.4878 30.0203 13.7738 30.1703 12.1708 30.7343C8.98282 31.8543 6.40582 34.7963 6.09282 38.1603C6.03282 38.8063 6.11882 39.5803 6.68382 39.9003C7.00582 40.0803 7.39782 40.0603 7.76182 40.1223C8.12582 40.1843 8.52682 40.4063 8.55782 40.7743M26.9908 31.5023L24.7628 36.2583C24.0428 37.7973 23.3148 39.3563 23.0018 41.0273C22.3788 44.3473 23.6378 48.0503 26.3948 50.0043C26.9238 50.3793 27.6368 50.6913 28.1948 50.3613C28.5148 50.1733 28.6918 49.8223 28.9278 49.5383C29.1648 49.2543 29.5558 49.0183 29.8908 49.1753M31.0768 28.5753L34.0818 32.8833C35.0548 34.2773 36.0418 35.6863 37.3318 36.7933C39.8958 38.9933 43.7318 39.7533 46.8018 38.3433C47.3918 38.0733 48.0188 37.6103 48.0118 36.9623C48.0078 36.5923 47.7928 36.2633 47.6658 35.9163C47.5378 35.5693 47.5288 35.1123 47.8318 34.9013M41.4538 9.60031C42.2038 9.48331 43.0298 9.59531 43.6638 9.18031M19.3398 5.09831C19.6138 4.39131 20.1238 3.73031 20.0808 2.97331M4.38582 22.0003C3.91082 21.4103 3.59282 20.6373 2.91582 20.2963M11.5458 43.4013C10.7958 43.5183 9.96982 43.4063 9.33582 43.8213M33.6598 47.9013C33.3858 48.6083 32.8758 49.2693 32.9188 50.0263M48.6138 31.0003C49.0888 31.5903 49.4068 32.3633 50.0838 32.7043M43.3998 11.5463C43.5168 10.7963 43.4048 9.97031 43.8198 9.33631M21.9998 4.38531C21.4098 3.91031 20.6368 3.59231 20.2958 2.91531M5.09882 19.3403C4.39182 19.6143 3.73082 20.1243 2.97382 20.0813M9.59982 41.4543C9.48282 42.2043 9.59482 43.0303 9.17982 43.6643M30.9998 48.6153C31.5898 49.0903 32.3628 49.4083 32.7038 50.0853M47.9008 33.6603C48.6078 33.3863 49.2688 32.8763 50.0258 32.9193" stroke="black" stroke-miterlimit="10" stroke-linecap="round" stroke-linejoin="round"/>
<path d="M39.1641 9.02114C37.7381 9.44514 36.4501 10.1851 35.4081 11.2551C34.2161 12.4811 33.8341 13.9791 32.9601 15.3931C32.9331 15.4381 33.0001 15.4931 33.0341 15.4501C33.8961 14.3851 34.1711 12.9951 35.0401 11.9051C36.1141 10.5581 37.5471 9.62014 39.1901 9.11114C39.2471 9.09314 39.2221 9.00414 39.1641 9.02114ZM17.6971 6.79114C17.3601 8.26614 17.3491 9.75014 17.7721 11.2111C18.2361 12.8151 19.3201 13.9331 20.1141 15.3511C20.1391 15.3961 20.2201 15.3661 20.1991 15.3151C19.7621 14.2301 18.8811 13.4281 18.3711 12.3731C17.5261 10.6231 17.3791 8.70014 17.7871 6.81614C17.8001 6.75714 17.7101 6.73214 17.6971 6.79114ZM5.03208 24.2691C6.07208 25.2341 7.26708 25.9661 8.64208 26.3511C10.3421 26.8261 11.9301 26.4761 13.6531 26.4561C13.7151 26.4551 13.7121 26.3691 13.6531 26.3621C12.1431 26.1871 10.7171 26.6481 9.18908 26.3351C7.63208 26.0161 6.27108 25.2661 5.09908 24.2031C5.05408 24.1631 4.98808 24.2281 5.03208 24.2691ZM13.8361 43.9751C15.2621 43.5511 16.5501 42.8111 17.5921 41.7411C18.7841 40.5151 19.1661 39.0171 20.0401 37.6031C20.0671 37.5581 20.0001 37.5031 19.9661 37.5461C19.1041 38.6111 18.8291 40.0011 17.9601 41.0911C16.8861 42.4381 15.4531 43.3761 13.8101 43.8851C13.7531 43.9031 13.7781 43.9921 13.8361 43.9751ZM35.3031 46.2051C35.6401 44.7301 35.6511 43.2461 35.2281 41.7851C34.7641 40.1811 33.6801 39.0631 32.8861 37.6451C32.8611 37.6001 32.7801 37.6301 32.8011 37.6811C33.2381 38.7661 34.1191 39.5681 34.6291 40.6231C35.4741 42.3731 35.6211 44.2961 35.2131 46.1801C35.2001 46.2391 35.2901 46.2641 35.3031 46.2051ZM47.9681 28.7271C46.9281 27.7621 45.7331 27.0301 44.3581 26.6451C42.6581 26.1701 41.0701 26.5201 39.3471 26.5401C39.2851 26.5411 39.2881 26.6271 39.3471 26.6341C40.8571 26.8091 42.2831 26.3481 43.8111 26.6611C45.3681 26.9801 46.7291 27.7301 47.9011 28.7931C47.9461 28.8331 48.0121 28.7681 47.9681 28.7271ZM43.8871 13.8091C43.3781 15.4511 42.4401 16.8831 41.0931 17.9581C40.0041 18.8271 38.6131 19.1031 37.5481 19.9641C37.5061 19.9981 37.5601 20.0651 37.6051 20.0381C39.0181 19.1651 40.5171 18.7821 41.7431 17.5901C42.8131 16.5481 43.5531 15.2601 43.9771 13.8341C43.9941 13.7761 43.9051 13.7511 43.8871 13.8091ZM24.2051 5.09614C25.2651 6.26614 26.0241 7.63214 26.3371 9.18614C26.6431 10.7061 26.1901 12.1471 26.3641 13.6511C26.3711 13.7101 26.4571 13.7131 26.4581 13.6511C26.4781 11.9311 26.8281 10.3391 26.3531 8.64113C25.9681 7.26613 25.2361 6.07114 24.2711 5.03014C24.2301 4.98614 24.1641 5.05214 24.2051 5.09614ZM6.81808 17.7851C8.70208 17.3771 10.6241 17.5251 12.3751 18.3691C13.4301 18.8791 14.2321 19.7591 15.3171 20.1971C15.3671 20.2171 15.3991 20.1371 15.3531 20.1121C13.9331 19.3161 12.8221 18.2361 11.2131 17.7701C9.75208 17.3471 8.26808 17.3581 6.79308 17.6951C6.73408 17.7081 6.75908 17.7981 6.81808 17.7851ZM9.11308 39.1871C9.62208 37.5451 10.5601 36.1131 11.9071 35.0381C12.9961 34.1691 14.3871 33.8931 15.4521 33.0321C15.4941 32.9981 15.4401 32.9311 15.3951 32.9581C13.9821 33.8311 12.4831 34.2141 11.2571 35.4061C10.1871 36.4481 9.44708 37.7361 9.02308 39.1621C9.00608 39.2201 9.09508 39.2451 9.11308 39.1871ZM28.7951 47.9001C27.7351 46.7301 26.9761 45.3641 26.6631 43.8101C26.3571 42.2901 26.8101 40.8491 26.6361 39.3451C26.6291 39.2861 26.5431 39.2831 26.5421 39.3451C26.5221 41.0651 26.1721 42.6571 26.6471 44.3551C27.0321 45.7301 27.7641 46.9251 28.7291 47.9661C28.7701 48.0101 28.8361 47.9441 28.7951 47.9001ZM46.1821 35.2111C44.2981 35.6191 42.3761 35.4711 40.6251 34.6271C39.5701 34.1171 38.7681 33.2371 37.6831 32.7991C37.6331 32.7791 37.6011 32.8591 37.6471 32.8841C39.0671 33.6801 40.1781 34.7601 41.7871 35.2261C43.2481 35.6491 44.7321 35.6381 46.2071 35.3011C46.2661 35.2881 46.2411 35.1981 46.1821 35.2111ZM40.4361 11.1041C39.3201 12.3961 37.6431 13.3481 37.0391 15.0371C37.0071 15.1261 37.1331 15.1951 37.1951 15.1281C38.3391 13.8951 39.0021 12.1011 40.4971 11.1831C40.5611 11.1431 40.4811 11.0511 40.4361 11.1041ZM20.1361 6.73314C20.6191 8.35114 20.7091 10.2951 21.8441 11.6411C21.9061 11.7141 22.0271 11.6361 22.0011 11.5511C21.4991 9.90714 20.3761 8.49614 20.2351 6.71914C20.2291 6.64514 20.1151 6.66414 20.1361 6.73314ZM6.20008 22.1261C7.83508 22.5311 9.58008 23.4091 11.3071 23.1011C11.3991 23.0851 11.3931 22.9411 11.3071 22.9211C9.62908 22.5311 7.85908 22.7851 6.23908 22.0341C6.17108 22.0041 6.13208 22.1091 6.20008 22.1261ZM12.5641 41.8921C13.6801 40.6001 15.3571 39.6481 15.9611 37.9591C15.9931 37.8701 15.8671 37.8011 15.8051 37.8681C14.6611 39.1011 13.9981 40.8951 12.5031 41.8131C12.4391 41.8531 12.5181 41.9451 12.5631 41.8921H12.5641ZM32.8641 46.2631C32.3811 44.6451 32.2911 42.7011 31.1561 41.3551C31.0941 41.2821 30.9731 41.3601 30.9991 41.4451C31.5011 43.0891 32.6241 44.5001 32.7651 46.2771C32.7711 46.3511 32.8851 46.3321 32.8641 46.2631ZM46.8001 30.8701C45.1651 30.4651 43.4201 29.5871 41.6931 29.8951C41.6011 29.9111 41.6071 30.0551 41.6931 30.0751C43.3711 30.4651 45.1411 30.2111 46.7611 30.9621C46.8291 30.9921 46.8681 30.8871 46.8001 30.8701ZM41.8151 12.5011C40.8971 13.9961 39.1031 14.6581 37.8701 15.8031C37.8031 15.8651 37.8721 15.9911 37.9601 15.9591C39.6501 15.3551 40.6021 13.6781 41.8941 12.5621C41.9461 12.5161 41.8541 12.4351 41.8151 12.5011ZM22.0361 6.23814C22.7861 7.85614 22.5341 9.63014 22.9231 11.3061C22.9431 11.3921 23.0871 11.3981 23.1031 11.3061C23.4111 9.57814 22.5331 7.83414 22.1281 6.19914C22.1111 6.13214 22.0051 6.16914 22.0361 6.23814ZM6.72108 20.2331C8.49708 20.3731 9.91108 21.4981 11.5521 21.9991C11.6381 22.0251 11.7161 21.9041 11.6431 21.8421C10.2961 20.7061 8.35408 20.6171 6.73508 20.1351C6.66708 20.1151 6.64608 20.2271 6.72108 20.2331ZM11.1851 40.4951C12.1031 39.0001 13.8971 38.3381 15.1301 37.1931C15.1971 37.1311 15.1281 37.0051 15.0401 37.0371C13.3501 37.6411 12.3981 39.3181 11.1061 40.4341C11.0541 40.4801 11.1461 40.5601 11.1851 40.4941V40.4951ZM30.9641 46.7591C30.2141 45.1411 30.4661 43.3671 30.0771 41.6911C30.0571 41.6051 29.9131 41.5991 29.8971 41.6911C29.5891 43.4191 30.4671 45.1631 30.8721 46.7981C30.8891 46.8651 30.9951 46.8281 30.9641 46.7591ZM46.2791 32.7631C44.5031 32.6231 43.0891 31.4981 41.4481 30.9971C41.3621 30.9711 41.2841 31.0921 41.3571 31.1541C42.7041 32.2901 44.6461 32.3791 46.2651 32.8611C46.3331 32.8811 46.3541 32.7691 46.2791 32.7631ZM27.5271 23.4531C27.7261 23.6881 27.9481 23.8651 28.2201 24.0101C28.3003 24.0547 28.3927 24.0725 28.4838 24.0608C28.5748 24.0491 28.6597 24.0086 28.7261 23.9451L28.7891 23.8851C28.8561 23.8211 28.8951 23.7011 28.8611 23.6111L28.8341 23.5381C28.7851 23.4111 28.6911 23.2701 28.5421 23.2471C28.3041 23.2142 28.075 23.1344 27.8681 23.0121C27.5801 22.8421 27.3281 23.2181 27.5271 23.4531ZM24.3791 24.0861C24.6742 24.0333 24.9562 23.9232 25.2091 23.7621C25.2872 23.7142 25.348 23.6425 25.3825 23.5576C25.4171 23.4727 25.4236 23.379 25.4011 23.2901L25.3811 23.2071C25.3601 23.1211 25.2761 23.0251 25.1841 23.0111L25.1101 22.9981C24.9711 22.9761 24.8011 22.9841 24.7031 23.1051C24.5555 23.2948 24.3716 23.4533 24.1621 23.5711C23.8701 23.7361 24.0781 24.1401 24.3791 24.0861ZM23.3491 27.1331C23.4541 26.8421 23.4961 26.5591 23.4851 26.2501C23.4832 26.1591 23.4524 26.071 23.3972 25.9986C23.3421 25.9262 23.2653 25.8732 23.1781 25.8471L23.0941 25.8231C23.0061 25.7971 22.8811 25.8201 22.8211 25.8951L22.7721 25.9551C22.6831 26.0651 22.6091 26.2151 22.6651 26.3611C22.7551 26.5941 22.7991 26.8071 22.7971 27.0581C22.7941 27.3891 23.2461 27.4221 23.3491 27.1331ZM25.4731 29.5431C25.2806 29.3141 25.0452 29.1248 24.7801 28.9861C24.6998 28.9415 24.6074 28.9238 24.5164 28.9355C24.4254 28.9472 24.3404 28.9877 24.2741 29.0511L24.2111 29.1111C24.1441 29.1751 24.1051 29.2951 24.1391 29.3851L24.1661 29.4581C24.2151 29.5851 24.3091 29.7261 24.4581 29.7491C24.7061 29.7881 24.9151 29.8561 25.1321 29.9841C25.4201 30.1541 25.6721 29.7781 25.4731 29.5431ZM28.6211 28.9101C28.3259 28.963 28.044 29.0731 27.7911 29.2341C27.7129 29.2821 27.6522 29.3537 27.6176 29.4386C27.5831 29.5235 27.5766 29.6173 27.5991 29.7061L27.6191 29.7891C27.6401 29.8751 27.7241 29.9711 27.8161 29.9851L27.8901 29.9971C28.0291 30.0191 28.1991 30.0111 28.2971 29.8901C28.4447 29.7004 28.6286 29.542 28.8381 29.4241C29.1301 29.2591 28.9221 28.8561 28.6211 28.9101ZM29.6511 25.8631C29.5461 26.1541 29.5041 26.4371 29.5151 26.7461C29.517 26.8372 29.5478 26.9252 29.6029 26.9976C29.6581 27.0701 29.7348 27.1231 29.8221 27.1491L29.9061 27.1731C29.9941 27.1991 30.1191 27.1761 30.1791 27.1011L30.2281 27.0411C30.3171 26.9311 30.3911 26.7811 30.3351 26.6351C30.2452 26.4139 30.2003 26.1769 30.2031 25.9381C30.2061 25.6071 29.7541 25.5741 29.6511 25.8631ZM29.9861 25.1301C29.8639 24.9233 29.784 24.6942 29.7511 24.4561C29.7281 24.3071 29.5871 24.2131 29.4601 24.1641L29.3871 24.1371C29.2971 24.1031 29.1771 24.1421 29.1131 24.2091L29.0531 24.2721C28.9897 24.3385 28.9491 24.4234 28.9374 24.5145C28.9257 24.6055 28.9435 24.6979 28.9881 24.7781C29.1331 25.0491 29.3091 25.2721 29.5451 25.4711C29.7781 25.6691 30.1571 25.4201 29.9861 25.1301ZM27.0601 22.7951C26.8213 22.7979 26.5843 22.753 26.3631 22.6631C26.2181 22.6071 26.0661 22.6811 25.9571 22.7701L25.8971 22.8191C25.8221 22.8791 25.7991 23.0041 25.8251 23.0921L25.8491 23.1761C25.9021 23.3581 26.0661 23.4761 26.2521 23.4831C26.5611 23.4931 26.8431 23.4521 27.1351 23.3471C27.4211 23.2441 27.3941 22.7921 27.0601 22.7951ZM23.5741 24.1601C23.4562 24.3696 23.2978 24.5535 23.1081 24.7011C22.9871 24.7991 22.9781 24.9691 23.0011 25.1081L23.0131 25.1821C23.0271 25.2741 23.1231 25.3581 23.2091 25.3791L23.2921 25.3991C23.3809 25.4216 23.4747 25.4151 23.5596 25.3806C23.6445 25.346 23.7161 25.2853 23.7641 25.2071C23.9271 24.9451 24.0331 24.6811 24.0881 24.3771C24.1421 24.0781 23.7401 23.8661 23.5741 24.1601ZM23.0141 27.8661C23.1421 28.0831 23.2101 28.2921 23.2491 28.5401C23.2721 28.6891 23.4131 28.7831 23.5401 28.8321L23.6131 28.8591C23.7031 28.8931 23.8231 28.8541 23.8871 28.7871L23.9471 28.7241C24.0105 28.6578 24.051 28.5729 24.0627 28.4818C24.0744 28.3908 24.0567 28.2984 24.0121 28.2181C23.8734 27.953 23.6842 27.7176 23.4551 27.5251C23.2221 27.3271 22.8431 27.5761 23.0141 27.8661ZM25.9401 30.2011C26.1911 30.1991 26.4041 30.2431 26.6371 30.3331C26.7821 30.3891 26.9341 30.3151 27.0431 30.2261L27.1031 30.1771C27.1781 30.1171 27.2011 29.9921 27.1751 29.9041L27.1511 29.8201C27.1252 29.7328 27.0722 29.656 26.9997 29.6008C26.9273 29.5456 26.8391 29.5149 26.7481 29.5131C26.4477 29.5004 26.1477 29.5466 25.8651 29.6491C25.5791 29.7521 25.6061 30.2041 25.9401 30.2011ZM29.4261 28.8361C29.5511 28.6161 29.6961 28.4521 29.8921 28.2951C30.0131 28.1971 30.0221 28.0271 29.9991 27.8881L29.9871 27.8141C29.9731 27.7221 29.8771 27.6381 29.7911 27.6171L29.7081 27.5971C29.6192 27.5746 29.5255 27.5812 29.4406 27.6157C29.3557 27.6502 29.284 27.711 29.2361 27.7891C29.075 28.042 28.9649 28.324 28.9121 28.6191C28.8581 28.9181 29.2601 29.1301 29.4261 28.8361Z" fill="black"/>
<path d="M28.8618 23.4629C28.3618 22.7079 29.1828 21.7329 28.4948 21.0189C28.3698 20.8889 28.1648 21.0919 28.2968 21.2179C28.9268 21.8249 28.1948 22.8519 28.6998 23.5579C28.7698 23.6539 28.9298 23.5649 28.8618 23.4629ZM25.0518 22.9349C24.1478 22.9799 23.7118 21.8049 22.7498 22.0319C22.5738 22.0719 22.6498 22.3509 22.8248 22.3019C23.6708 22.0699 24.1868 23.1979 25.0508 23.1229C25.1698 23.1129 25.1738 22.9289 25.0518 22.9349ZM22.6888 25.9719C22.2868 26.7779 21.0188 26.5579 20.7558 27.5119C20.7068 27.6859 20.9858 27.7619 21.0258 27.5859C21.2278 26.7369 22.4938 26.8539 22.8508 26.0659C22.8998 25.9589 22.7428 25.8629 22.6888 25.9719ZM24.1378 29.5369C24.6378 30.2919 23.8168 31.2669 24.5048 31.9809C24.6298 32.1109 24.8348 31.9079 24.7028 31.7819C24.0728 31.1749 24.8048 30.1479 24.2998 29.4419C24.2298 29.3459 24.0698 29.4349 24.1378 29.5369ZM27.9478 30.0649C28.8518 30.0199 29.2878 31.1949 30.2498 30.9679C30.4258 30.9279 30.3498 30.6489 30.1748 30.6979C29.3288 30.9299 28.8128 29.8019 27.9488 29.8769C27.8298 29.8869 27.8258 30.0709 27.9478 30.0649ZM30.3108 27.0279C30.7128 26.2219 31.9808 26.4419 32.2438 25.4879C32.2928 25.3139 32.0138 25.2379 31.9738 25.4139C31.7718 26.2629 30.5058 26.1459 30.1488 26.9339C30.0998 27.0409 30.2568 27.1369 30.3108 27.0279ZM29.4428 24.2999C30.1458 24.8039 31.1758 24.0729 31.7828 24.7029C31.9078 24.8339 32.1118 24.6299 31.9808 24.5049C31.2688 23.8179 30.2888 24.6349 29.5368 24.1379C29.4358 24.0699 29.3468 24.2299 29.4428 24.2999ZM26.0668 22.8499C26.8528 22.4939 26.7368 21.2279 27.5868 21.0269C27.7618 20.9849 27.6868 20.7069 27.5108 20.7559C26.5568 21.0199 26.7798 22.2859 25.9718 22.6889C25.8618 22.7429 25.9578 22.8979 26.0668 22.8499ZM23.1228 25.0509C23.1978 24.1869 22.0698 23.6709 22.3028 22.8249C22.3508 22.6499 22.0728 22.5739 22.0318 22.7499C21.8048 23.7129 22.9798 24.1489 22.9348 25.0509C22.9288 25.1729 23.1128 25.1699 23.1228 25.0509ZM23.5568 28.7009C22.8538 28.1959 21.8238 28.9269 21.2168 28.2969C21.0918 28.1659 20.8878 28.3699 21.0188 28.4949C21.7308 29.1819 22.7108 28.3649 23.4628 28.8619C23.5638 28.9299 23.6528 28.7709 23.5568 28.7009ZM26.9328 30.1489C26.1468 30.5059 26.2628 31.7719 25.4128 31.9729C25.2378 32.0149 25.3128 32.2929 25.4888 32.2439C26.4428 31.9799 26.2198 30.7139 27.0278 30.3109C27.1378 30.2569 27.0418 30.1009 26.9328 30.1489ZM29.8768 27.9489C29.8018 28.8129 30.9298 29.3289 30.6968 30.1749C30.6488 30.3499 30.9268 30.4259 30.9678 30.2499C31.1948 29.2869 30.0198 28.8509 30.0648 27.9489C30.0708 27.8269 29.8868 27.8299 29.8768 27.9489ZM33.2388 7.98388C33.2328 7.47988 33.4208 7.15788 33.8018 6.83688C34.0058 6.66388 34.1878 6.52688 34.2938 6.27488C34.6248 5.48488 33.8348 5.09488 33.8018 4.39088C33.7758 3.85588 32.9548 3.68888 32.8268 4.25888C32.7498 4.60488 32.7848 4.86688 32.9248 5.19788C32.9898 5.34788 33.1068 5.48388 33.1628 5.63588C33.2988 6.00588 33.2738 5.89088 33.0428 6.14488C32.5648 6.66888 32.3128 7.26488 32.3948 7.98388C32.4548 8.50888 33.2448 8.54088 33.2388 7.98388ZM13.8358 11.4069C13.3858 11.1619 13.2018 10.8339 13.1218 10.3469C13.0668 10.0129 13.0098 9.71188 12.7348 9.48088C12.4848 9.27088 12.1748 9.19088 11.8538 9.18788C11.7008 9.18588 11.5458 9.22488 11.3928 9.21788C11.1888 9.20688 11.0348 9.11788 10.8358 9.08788C10.4908 9.03788 10.2398 9.27488 10.2988 9.62588C10.3668 10.0299 10.7238 10.1889 11.0948 10.2629C11.4418 10.3319 11.9088 10.1699 12.1098 10.4839C12.2068 10.6369 12.2128 10.9149 12.2988 11.0909C12.3648 11.2279 12.4458 11.3519 12.5388 11.4719C12.8008 11.8089 13.1228 12.0149 13.5108 12.1779C13.9538 12.3639 14.2498 11.6319 13.8358 11.4069ZM7.09283 29.9229C6.60183 30.2149 6.21183 30.1299 5.70183 29.9589C5.41083 29.8609 5.15083 29.8049 4.85183 29.9209C4.20783 30.1709 4.07883 30.9189 3.59183 31.3409C3.27683 31.6149 3.54183 32.1189 3.91883 32.1289C4.25383 32.1379 4.47883 32.0039 4.70483 31.7599C4.94183 31.5039 5.03983 30.9979 5.42783 30.9519C5.56383 30.9359 5.78583 31.0579 5.92983 31.0769C6.49528 31.1503 7.06683 30.9972 7.51983 30.6509C7.94483 30.3369 7.57183 29.6389 7.09283 29.9229ZM19.7608 45.0159C19.7668 45.5199 19.5788 45.8419 19.1978 46.1629C18.9938 46.3359 18.8118 46.4729 18.7058 46.7249C18.3748 47.5149 19.1648 47.9049 19.1978 48.6089C19.2238 49.1439 20.0448 49.3109 20.1728 48.7409C20.2498 48.3949 20.2148 48.1329 20.0748 47.8019C20.0098 47.6519 19.8928 47.5159 19.8368 47.3639C19.7008 46.9939 19.7258 47.1089 19.9568 46.8549C20.4348 46.3309 20.6868 45.7349 20.6048 45.0159C20.5448 44.4909 19.7548 44.4589 19.7608 45.0159ZM39.1638 41.5929C39.6138 41.8379 39.7978 42.1659 39.8778 42.6529C39.9328 42.9869 39.9898 43.2879 40.2648 43.5189C40.5148 43.7289 40.8248 43.8089 41.1458 43.8119C41.2988 43.8139 41.4538 43.7749 41.6068 43.7819C41.8108 43.7929 41.9648 43.8819 42.1638 43.9119C42.5088 43.9619 42.7598 43.7249 42.7008 43.3739C42.6328 42.9699 42.2758 42.8109 41.9048 42.7369C41.5578 42.6679 41.0908 42.8299 40.8898 42.5159C40.7928 42.3629 40.7868 42.0849 40.7008 41.9089C40.6345 41.7738 40.554 41.6461 40.4608 41.5279C40.1988 41.1909 39.8768 40.9849 39.4888 40.8219C39.0458 40.6359 38.7498 41.3679 39.1638 41.5929ZM45.9068 23.0769C46.3978 22.7849 46.7878 22.8699 47.2978 23.0409C47.5888 23.1389 47.8488 23.1949 48.1478 23.0789C48.7918 22.8289 48.9208 22.0809 49.4078 21.6589C49.7228 21.3849 49.4578 20.8809 49.0808 20.8709C48.7458 20.8619 48.5208 20.9959 48.2948 21.2399C48.0578 21.4959 47.9598 22.0019 47.5718 22.0479C47.4358 22.0639 47.2138 21.9419 47.0698 21.9229C46.5044 21.8494 45.9328 22.0026 45.4798 22.3489C45.0548 22.6629 45.4278 23.3609 45.9068 23.0769ZM45.0168 20.6049C45.7338 20.6869 46.3318 20.4349 46.8548 19.9569C47.0198 19.8069 47.0068 19.7419 47.2348 19.7789C47.4108 19.8069 47.5758 19.9719 47.7378 20.0479C48.0788 20.2079 48.3758 20.2539 48.7408 20.1729C49.3058 20.0459 49.1498 19.2239 48.6088 19.1979C47.9028 19.1649 47.5158 18.3819 46.7248 18.7059C46.0118 18.9989 45.9438 19.7719 45.0158 19.7609C44.4608 19.7549 44.4908 20.5449 45.0168 20.6049ZM30.6508 7.51888C30.9966 7.06564 31.1493 6.49418 31.0758 5.92888C31.0598 5.80388 30.9368 5.53888 30.9508 5.42788C30.9978 5.05088 31.5068 4.93788 31.7588 4.70488C32.0008 4.48088 32.1368 4.25388 32.1278 3.91888C32.1178 3.54488 31.6138 3.27688 31.3398 3.59288C30.9218 4.07488 30.1608 4.20888 29.9198 4.85188C29.8078 5.15088 29.8598 5.40988 29.9578 5.70188C30.1358 6.23188 30.2258 6.58188 29.9218 7.09288C29.6378 7.57088 30.3348 7.94488 30.6508 7.51888ZM12.1768 13.5109C12.0138 13.1219 11.8068 12.8009 11.4708 12.5389C11.3527 12.4456 11.225 12.3651 11.0898 12.2989C10.9138 12.2129 10.6358 12.2069 10.4828 12.1099C10.1728 11.9129 10.3298 11.4379 10.2618 11.0949C10.1878 10.7249 10.0288 10.3669 9.62483 10.2989C9.27383 10.2399 9.03783 10.4909 9.08783 10.8359C9.11683 11.0349 9.20583 11.1889 9.21583 11.3929C9.22383 11.5459 9.18583 11.7009 9.18583 11.8529C9.18983 12.1729 9.27083 12.4859 9.47983 12.7349C9.71283 13.0119 10.0078 13.0659 10.3458 13.1219C10.8328 13.2019 11.1608 13.3859 11.4058 13.8359C11.6288 14.2449 12.3658 13.9589 12.1768 13.5109ZM7.98383 32.3949C7.26583 32.3129 6.66783 32.5649 6.14383 33.0429C5.97983 33.1929 5.99283 33.2579 5.76383 33.2209C5.58883 33.1929 5.42383 33.0279 5.26183 32.9519C4.92083 32.7919 4.62383 32.7459 4.25883 32.8269C3.69383 32.9539 3.84983 33.7759 4.39083 33.8019C5.09683 33.8349 5.48383 34.6179 6.27483 34.2939C6.98783 34.0009 7.05583 33.2279 7.98383 33.2389C8.53883 33.2449 8.50983 32.4549 7.98383 32.3949ZM22.3478 45.4809C22.0021 45.9341 21.8493 46.5056 21.9228 47.0709C21.9388 47.1959 22.0618 47.4609 22.0478 47.5719C22.0008 47.9489 21.4918 48.0619 21.2398 48.2949C20.9978 48.5189 20.8618 48.7459 20.8708 49.0809C20.8808 49.4549 21.3848 49.7229 21.6588 49.4069C22.0768 48.9249 22.8378 48.7909 23.0788 48.1479C23.1908 47.8489 23.1388 47.5899 23.0408 47.2979C22.8628 46.7679 22.7728 46.4179 23.0768 45.9069C23.3608 45.4289 22.6638 45.0549 22.3478 45.4809ZM40.8218 39.4889C40.9848 39.8779 41.1918 40.1989 41.5278 40.4609C41.6478 40.5549 41.7698 40.6339 41.9088 40.7009C42.0848 40.7869 42.3628 40.7929 42.5158 40.8899C42.8258 41.0869 42.6688 41.5619 42.7368 41.9049C42.8108 42.2749 42.9698 42.6329 43.3738 42.7009C43.7248 42.7599 43.9608 42.5089 43.9108 42.1639C43.8818 41.9649 43.7928 41.8109 43.7828 41.6069C43.7748 41.4539 43.8128 41.2989 43.8128 41.1469C43.8088 40.8269 43.7278 40.5139 43.5188 40.2649C43.2858 39.9879 42.9908 39.9339 42.6528 39.8779C42.1658 39.7979 41.8378 39.6139 41.5928 39.1639C41.3698 38.7549 40.6328 39.0409 40.8218 39.4889Z" fill="black"/>
<path d="M32.1339 20.8666C31.8869 20.7246 31.8919 20.3556 31.8879 19.7516C31.8824 18.9066 32.0498 18.0694 32.3799 17.2916C32.5329 16.9346 32.8449 16.5316 33.2199 16.6376C33.2379 16.9246 33.2819 17.2546 33.5259 17.4076C33.7289 17.5356 33.9999 17.4836 34.2089 17.3656C34.4189 17.2486 34.5889 17.0756 34.7909 16.9446C35.0589 16.7696 35.3789 16.6766 35.6989 16.6786C35.8509 16.6806 36.0189 16.7116 36.1129 16.8306C36.1213 16.8414 36.129 16.8528 36.1359 16.8646C36.1477 16.8715 36.1591 16.8792 36.1699 16.8876C36.2899 16.9816 36.3199 17.1496 36.3219 17.3016C36.3239 17.6216 36.2309 17.9416 36.0559 18.2096C35.9259 18.4106 35.7519 18.5826 35.6349 18.7916C35.5179 19.0006 35.4649 19.2716 35.5929 19.4746C35.7459 19.7186 36.0759 19.7626 36.3629 19.7816C36.4689 20.1556 36.0659 20.4676 35.7079 20.6206C34.9301 20.9507 34.0929 21.1182 33.2479 21.1126C32.6449 21.1086 32.2759 21.1126 32.1339 20.8666ZM34.1959 28.5626C34.1959 28.2776 34.5179 28.0976 35.0389 27.7926C35.7678 27.3653 36.5764 27.0917 37.4149 26.9886C37.8009 26.9426 38.3049 27.0116 38.4009 27.3886C38.1619 27.5486 37.8979 27.7516 37.8869 28.0386C37.8789 28.2786 38.0589 28.4876 38.2649 28.6096C38.4709 28.7316 38.7079 28.7936 38.9209 28.9026C39.2069 29.0476 39.4479 29.2776 39.6049 29.5566C39.6799 29.6886 39.7369 29.8496 39.6809 29.9906C39.6757 30.0033 39.6697 30.0157 39.6629 30.0276C39.6628 30.041 39.6618 30.0543 39.6599 30.0676C39.6379 30.2186 39.5079 30.3296 39.3779 30.4066C39.1019 30.5686 38.7779 30.6486 38.4579 30.6316C38.2179 30.6186 37.9829 30.5536 37.7439 30.5566C37.5039 30.5596 37.2429 30.6506 37.1309 30.8626C36.9959 31.1166 37.1239 31.4246 37.2509 31.6826C36.9789 31.9616 36.5079 31.7686 36.1969 31.5346C35.5223 31.0264 34.9587 30.3856 34.5409 29.6516C34.2419 29.1266 34.0539 28.8096 34.1959 28.5626ZM28.5619 34.1966C28.8089 34.0546 29.1259 34.2426 29.6509 34.5416C30.385 34.9594 31.0258 35.5229 31.5339 36.1976C31.7679 36.5086 31.9609 36.9796 31.6819 37.2516C31.4239 37.1246 31.1159 36.9966 30.8619 37.1316C30.6499 37.2436 30.5589 37.5046 30.5559 37.7446C30.5529 37.9846 30.6179 38.2196 30.6309 38.4586C30.6479 38.7786 30.5679 39.1026 30.4059 39.3786C30.3289 39.5086 30.2179 39.6386 30.0679 39.6606C30.0543 39.6625 30.0407 39.6635 30.0269 39.6636C30.015 39.6704 30.0026 39.6764 29.9899 39.6816C29.8489 39.7376 29.6879 39.6816 29.5559 39.6056C29.2759 39.4462 29.0486 39.2085 28.9019 38.9216C28.7919 38.7086 28.7319 38.4716 28.6089 38.2656C28.4869 38.0596 28.2779 37.8796 28.0389 37.8876C27.7509 37.8986 27.5479 38.1626 27.3879 38.4016C27.0109 38.3066 26.9419 37.8016 26.9879 37.4156C27.0889 36.5796 27.3669 35.7656 27.7919 35.0396C28.0969 34.5186 28.2769 34.1966 28.5619 34.1966ZM20.8659 32.1346C21.1129 32.2766 21.1079 32.6456 21.1119 33.2496C21.1175 34.0946 20.9501 34.9318 20.6199 35.7096C20.4669 36.0666 20.1549 36.4696 19.7799 36.3636C19.7619 36.0766 19.7179 35.7466 19.4739 35.5936C19.2709 35.4656 18.9999 35.5176 18.7909 35.6356C18.5819 35.7536 18.4109 35.9256 18.2089 36.0566C17.9387 36.2318 17.6231 36.3243 17.3009 36.3226C17.1489 36.3206 16.9809 36.2896 16.8869 36.1706C16.8786 36.1598 16.8709 36.1484 16.8639 36.1366C16.8521 36.1297 16.8408 36.122 16.8299 36.1136C16.7099 36.0196 16.6799 35.8516 16.6779 35.6996C16.6759 35.3796 16.7689 35.0596 16.9439 34.7916C17.0739 34.5906 17.2479 34.4186 17.3649 34.2096C17.4829 34.0006 17.5349 33.7296 17.4069 33.5266C17.2539 33.2826 16.9239 33.2386 16.6369 33.2196C16.5309 32.8456 16.9339 32.5336 17.2919 32.3806C18.0698 32.0505 18.907 31.883 19.7519 31.8886C20.3549 31.8926 20.7239 31.8886 20.8659 32.1346ZM18.8039 24.4386C18.8039 24.7236 18.4819 24.9036 17.9609 25.2086C17.2321 25.6359 16.4235 25.9095 15.5849 26.0126C15.1989 26.0586 14.6949 25.9896 14.5989 25.6126C14.8379 25.4526 15.1019 25.2496 15.1129 24.9626C15.1209 24.7226 14.9409 24.5136 14.7349 24.3916C14.5289 24.2696 14.2919 24.2076 14.0789 24.0986C13.7921 23.9519 13.5543 23.7246 13.3949 23.4446C13.3199 23.3126 13.2629 23.1516 13.3189 23.0106C13.3241 22.9979 13.3302 22.9855 13.3369 22.9736C13.3369 22.9606 13.3379 22.9466 13.3399 22.9336C13.3619 22.7826 13.4919 22.6716 13.6219 22.5946C13.8979 22.4326 14.2219 22.3526 14.5419 22.3696C14.7819 22.3826 15.0169 22.4476 15.2559 22.4446C15.4959 22.4416 15.7569 22.3506 15.8689 22.1386C16.0039 21.8846 15.8759 21.5766 15.7489 21.3186C16.0209 21.0396 16.4919 21.2326 16.8029 21.4666C17.4776 21.9747 18.0411 22.6156 18.4589 23.3496C18.7579 23.8746 18.9459 24.1916 18.8039 24.4386ZM24.4379 18.8046C24.1909 18.9466 23.8739 18.7586 23.3489 18.4596C22.6149 18.0418 21.9741 17.4782 21.4659 16.8036C21.2319 16.4926 21.0389 16.0216 21.3179 15.7496C21.5759 15.8766 21.8839 16.0046 22.1379 15.8696C22.3499 15.7576 22.4409 15.4966 22.4439 15.2566C22.4469 15.0166 22.3819 14.7816 22.3689 14.5426C22.3519 14.2226 22.4319 13.8986 22.5939 13.6226C22.6709 13.4926 22.7819 13.3626 22.9319 13.3406C22.9455 13.3387 22.9592 13.3377 22.9729 13.3376C22.9849 13.3308 22.9972 13.3248 23.0099 13.3196C23.1509 13.2636 23.3119 13.3196 23.4439 13.3956C23.7229 13.5526 23.9539 13.7936 24.0979 14.0796C24.2079 14.2926 24.2679 14.5296 24.3909 14.7356C24.5129 14.9416 24.7219 15.1216 24.9609 15.1136C25.2489 15.1026 25.4519 14.8386 25.6119 14.5996C25.9889 14.6946 26.0579 15.1996 26.0119 15.5856C25.9109 16.4216 25.6329 17.2356 25.2079 17.9616C24.9029 18.4826 24.7229 18.8046 24.4379 18.8046Z" fill="black" stroke="black" stroke-width="0.5" stroke-miterlimit="10" stroke-linecap="round" stroke-linejoin="round"/>
</svg>
