<svg width="113" height="113" viewBox="0 0 113 113" fill="none" xmlns="http://www.w3.org/2000/svg">
<g clip-path="url(#clip0_2306_10438)">
<path d="M82.6924 75.8678C78.7842 73.4722 74.5585 71.8679 70.3327 70.2636C73.5621 47.0643 74.7045 42.4326 71.7288 38.9044C70.0622 36.9675 62.5947 34.4663 59.4369 34.871C57.5969 34.9227 55.7849 35.4082 54.0612 36.2232C51.4374 37.6324 49.705 40.3918 47.7961 42.4923C44.6695 45.9784 36.6397 55.5452 35.5867 56.8867C29.7062 54.0485 13.4415 48.6962 11.7683 54.9708C11.0609 55.9548 10.683 56.8506 10.4095 57.8066C8.74059 63.109 10.503 67.0506 15.1701 70.3022C18.3311 72.5449 21.9141 74.0566 25.5897 74.9255C28.1445 75.5651 30.6553 76.0399 33.2263 76.4104C33.4351 76.5309 33.7043 76.5471 33.8087 76.6074C37.8288 80.7385 55.8203 87.9234 60.2829 90.0821C63.7012 91.6379 67.871 92.3745 71.523 91.8373C75.7736 91.228 85.9996 85.5748 86.2301 80.8344C86.3314 78.2473 84.2589 76.7722 82.6924 75.8678ZM81.6835 77.374C83.5633 78.4593 84.3062 79.5844 84.2857 80.8257C84.2049 82.1715 83.2725 83.3041 81.9665 84.3603C81.6296 82.7733 81.0838 81.0658 80.791 79.6435C80.6585 79.1493 80.2408 78.9082 79.8069 78.9361C77.5169 79.2849 75.7652 79.666 73.4149 80.1192C72.4955 78.3352 71.6364 76.4468 71.1509 74.6348C71.0184 74.1406 70.4963 73.8391 70.0021 73.9715C67.4709 74.738 64.6221 76.2959 62.2675 77.7213C61.1392 75.8167 60.1315 73.7032 58.8988 71.7383C58.6016 71.2883 58.0633 71.256 57.6736 71.4487C55.4837 72.83 53.1409 74.9584 50.8906 76.4441C49.8065 74.7043 48.6664 72.0966 47.6264 70.5215C47.3734 70.2362 47.0601 70.0553 46.7307 70.1436C43.6612 70.8778 40.302 72.8372 37.4973 74.5597C36.0278 72.0403 34.0963 69.1151 32.5945 67.134C32.237 66.7884 31.759 66.6517 31.309 66.9488C29.6132 68.1977 27.2586 69.6231 25.1893 70.7955L21.5956 64.9611C21.3426 64.6758 21.0293 64.4949 20.5954 64.5229C19.0084 64.8599 17.4656 65.3615 16.0111 66.1927C15.8065 65.0999 15.6181 63.7379 15.4739 62.5407C15.4459 62.1068 14.984 61.7009 14.5502 61.7289C13.8471 61.7407 12.5175 61.3908 11.963 61.6276C11.5216 59.9804 11.6347 58.0963 12.7038 56.4856C17.2181 60.4844 23.7059 61.306 29.8642 62.2159C30.029 62.1717 64.3198 66.9313 81.6835 77.374ZM79.7605 86.0107C78.1822 84.4033 76.3185 83.0488 74.0652 81.8871C75.9816 81.4618 77.5083 81.2293 79.3644 80.9085C79.7616 82.3911 80.3074 84.0986 80.6003 85.5209C80.4355 85.565 79.9855 85.8622 79.7605 86.0107ZM63.8178 78.8949C65.7224 77.7666 67.7314 76.6986 69.664 76.0042C70.2098 77.7118 70.9806 79.2708 71.7515 80.8298C69.0039 79.8004 66.4932 79.3256 63.8178 78.8949ZM52.0512 77.8104C53.972 76.413 55.9089 74.7464 57.8738 73.5137C58.8093 75.0285 59.4758 76.5272 60.7085 78.4921C57.6433 78.2541 54.8473 78.0323 52.0512 77.8104ZM49.4641 77.7092C45.7561 77.3785 42.1688 76.8391 38.5976 76.0304C41.0125 74.5006 43.9217 72.8383 46.5573 72.1321C47.4326 73.7514 48.4402 75.8648 49.4641 77.7092ZM26.0204 72.2501C27.8647 71.2262 29.934 70.0538 31.5695 68.9094C32.9228 70.6654 34.6012 73.3054 35.7736 75.3747C32.5319 74.4778 29.1857 73.5206 26.0204 72.2501ZM12.7177 63.4558C13.1516 63.4278 13.3604 63.5484 13.8987 63.5807C13.9709 64.1793 14.043 64.7779 14.2034 65.706C13.6974 65.1354 13.2958 64.625 12.7177 63.4558ZM16.7216 67.8561C17.8908 67.278 19.0601 66.6998 20.3176 66.4512L23.1684 71.1604C21.0636 70.2237 18.6897 69.2708 16.7216 67.8561ZM68.6456 69.5681C67.5852 69.2343 66.585 68.7961 65.5245 68.4623C61.0264 64.1944 41.4026 60.8015 37.8992 61.5636C37.3609 61.5313 36.8829 61.3946 36.3445 61.3623L49.8319 45.4779C56.6642 49.5617 63.208 51.2511 70.9694 51.5549C70.1478 58.0427 69.3747 63.723 68.6456 69.5681ZM70.258 40.0047C72.3262 42.452 71.6338 46.7865 71.2311 49.8958C63.4696 49.592 57.2553 47.8143 50.9894 44.1967C51.0497 44.0923 56.0293 37.6379 57.528 36.9715C61.2445 35.3577 69.2019 38.6987 70.258 40.0047ZM34.2646 58.212C33.513 59.0313 32.7454 60.1197 31.7409 60.6537C25.3134 59.7277 18.1064 59.187 13.6083 54.9191C15.8068 51.5935 30.3241 56.3547 34.2646 58.212ZM71.1419 90.0856C67.8194 90.5345 64.0232 89.8744 60.9182 88.4995C54.3508 85.404 47.6304 83.0557 40.782 79.241C64.7608 82.085 70.9074 82.2918 75.6864 87.2789C75.9394 87.5642 76.1924 87.8495 76.6102 88.0907C74.8262 89.0101 73.0422 89.9295 71.1419 90.0856Z" fill="#292D32"/>
<path d="M49.2968 48.0943C48.9997 47.6442 48.4614 47.6119 48.0716 47.8046L47.8466 47.9532C47.3966 48.2504 47.3642 48.7887 47.557 49.1784C47.8541 49.6285 48.3924 49.6608 48.7822 49.4681L49.0072 49.3195C49.4572 49.0223 49.594 48.5443 49.2968 48.0943ZM53.4785 49.5338C52.9843 49.6663 52.5342 49.9634 52.5019 50.5017C52.4255 50.8753 52.6623 51.4298 53.0801 51.671C53.9155 52.1533 54.8156 51.559 54.8038 50.856C54.9567 50.1088 54.4065 49.3734 53.4785 49.5338ZM59.6766 51.5807L59.4075 51.5645C58.9294 51.4278 58.4794 51.7249 58.3426 52.2029C58.2059 52.681 58.503 53.131 58.9811 53.2677L59.2502 53.2839C59.7282 53.4206 60.1783 53.1235 60.315 52.6455C60.4518 52.1675 60.1546 51.7174 59.6766 51.5807ZM65.1599 52.9363C64.7422 52.6951 64.1436 52.7672 63.8421 53.2894L63.7818 53.3938C63.5406 53.8116 63.6127 54.4102 64.1349 54.7116C64.6571 55.0131 65.1512 54.8807 65.4527 54.3585L65.513 54.2541C65.8145 53.7319 65.5776 53.1775 65.1599 52.9363ZM69.4341 53.7331C69.0767 53.3875 68.4781 53.4596 68.1325 53.817L68.0722 53.9215C67.7266 54.2789 67.7987 54.8775 68.1561 55.2231C68.5136 55.5687 69.1122 55.4966 69.4578 55.1392L69.5181 55.0348C69.8637 54.6773 69.7916 54.0787 69.4341 53.7331ZM45.8067 32.4334L50.1606 35.5041C50.5783 35.7453 51.1769 35.6732 51.4181 35.2554C51.6593 34.8377 51.5872 34.2391 51.1694 33.9979L46.7553 31.0317C46.3375 30.7905 45.7389 30.8626 45.4978 31.2803C45.3169 31.5936 45.389 32.1923 45.8067 32.4334ZM50.5743 23.2111C50.0801 23.3435 49.8831 23.9259 50.0155 24.4201L53.4476 32.9461C53.58 33.4403 54.1625 33.6373 54.6567 33.5049C55.1508 33.3725 55.3479 32.79 55.2155 32.2958L51.7833 23.7699C51.5465 23.2154 50.964 23.0183 50.5743 23.2111ZM58.7189 31.5337C59.2572 31.566 59.6028 31.2085 59.7395 30.7305L60.53 21.1614C60.5623 20.6231 60.2049 20.2774 59.7269 20.1407C59.1885 20.1084 58.8429 20.4658 58.7062 20.9438L57.9157 30.513C57.779 30.991 58.1805 31.5013 58.7189 31.5337Z" fill="#292D32"/>
</g>
<defs>
<clipPath id="clip0_2306_10438">
<rect width="82" height="82" fill="white" transform="translate(41) rotate(30)"/>
</clipPath>
</defs>
</svg>
