<svg width="16" height="16" viewBox="0 0 16 16" fill="none" xmlns="http://www.w3.org/2000/svg">
<path d="M11.6933 5.87245C12.7832 5.87245 13.6667 4.98896 13.6667 3.89911C13.6667 2.80927 12.7832 1.92578 11.6933 1.92578C10.6035 1.92578 9.72 2.80927 9.72 3.89911C9.72 4.98896 10.6035 5.87245 11.6933 5.87245Z" fill="white"/>
<path d="M4.30667 5.87245C5.39651 5.87245 6.28 4.98896 6.28 3.89911C6.28 2.80927 5.39651 1.92578 4.30667 1.92578C3.21682 1.92578 2.33333 2.80927 2.33333 3.89911C2.33333 4.98896 3.21682 5.87245 4.30667 5.87245Z" fill="white"/>
<path d="M11.6933 14.0717C12.7832 14.0717 13.6667 13.1882 13.6667 12.0983C13.6667 11.0085 12.7832 10.125 11.6933 10.125C10.6035 10.125 9.72 11.0085 9.72 12.0983C9.72 13.1882 10.6035 14.0717 11.6933 14.0717Z" fill="white"/>
<path d="M4.30667 14.0717C5.39651 14.0717 6.28 13.1882 6.28 12.0983C6.28 11.0085 5.39651 10.125 4.30667 10.125C3.21682 10.125 2.33333 11.0085 2.33333 12.0983C2.33333 13.1882 3.21682 14.0717 4.30667 14.0717Z" fill="white"/>
</svg>
